<svg width="202" height="63" viewBox="0 0 202 63" fill="none" xmlns="http://www.w3.org/2000/svg">
<path d="M152.43 47.3204C152.434 47.1368 152.363 46.9493 152.191 46.7813C146.809 41.5821 141.422 36.3829 136.039 31.1837C135.961 31.1056 135.883 31.0313 135.805 30.9571C140.816 25.7657 145.828 20.5704 150.844 15.379C151.082 15.1329 151.32 14.8868 151.559 14.6368C151.851 14.336 151.844 13.8399 151.539 13.547C147.023 9.18368 142.504 4.8204 137.984 0.461024C137.684 0.168055 137.187 0.175868 136.898 0.476649C131.703 5.85556 126.516 11.2306 121.32 16.6056C121.262 16.672 121.199 16.7345 121.141 16.797C115.937 11.7735 110.738 6.75399 105.539 1.73056C105.277 1.47665 105.012 1.22274 104.75 0.968837C104.445 0.675868 103.953 0.687587 103.66 0.988368C99.2968 5.5079 94.9335 10.0235 90.5702 14.5431C90.2773 14.8438 90.289 15.3399 90.5898 15.6329C95.9726 20.8321 101.359 26.0313 106.746 31.2306C106.824 31.3087 106.902 31.3829 106.98 31.461C101.949 36.6681 96.9218 41.8751 91.8905 47.086C91.621 47.3634 91.3515 47.6446 91.0819 47.922C90.7929 48.2227 90.8007 48.7188 91.1015 49.0118C95.621 53.3751 100.141 57.7384 104.656 62.1017C104.961 62.3907 105.457 62.3829 105.746 62.0821C110.953 56.6876 116.164 51.297 121.371 45.9024C121.461 45.8087 121.551 45.7149 121.644 45.6173C126.844 50.6407 132.043 55.6602 137.246 60.6837C137.508 60.9376 137.769 61.1915 138.035 61.4454C138.336 61.7384 138.832 61.7306 139.121 61.4259C143.484 56.9063 147.848 52.3907 152.211 47.8712C152.379 47.6993 152.441 47.504 152.43 47.3204Z" fill="#F831FF"/>
<path d="M6.44043 41.6279H0.674805V19.2217H18.4404V23.7061H6.44043V28.9873H15.8779V33.4717H6.44043V41.6279Z" fill="white"/>
<path d="M35.0605 25.3154C35.0605 24.0342 34.4238 23.3936 33.1543 23.3936H27.7012C26.4277 23.3936 25.7949 24.0342 25.7949 25.3154V35.5498C25.7949 36.8311 26.4277 37.4717 27.7012 37.4717H33.1543C34.4238 37.4717 35.0605 36.8311 35.0605 35.5498V25.3154ZM40.8262 35.5498C40.8262 37.792 40.3184 39.417 39.3105 40.4248C38.2988 41.4365 36.6738 41.9404 34.4355 41.9404H26.4355C24.1855 41.9404 22.5527 41.4365 21.5449 40.4248C20.5332 39.417 20.0293 37.792 20.0293 35.5498V25.3154C20.0293 23.0654 20.5332 21.4365 21.5449 20.4248C22.5527 19.417 24.1855 18.9092 26.4355 18.9092H34.4355C36.6738 18.9092 38.2988 19.417 39.3105 20.4248C40.3184 21.4365 40.8262 23.0654 40.8262 25.3154V35.5498Z" fill="white"/>
<path d="M172.031 25.4062C172.031 24.125 171.395 23.4844 170.125 23.4844H164.672C163.398 23.4844 162.766 24.125 162.766 25.4062V35.6406C162.766 36.9219 163.398 37.5625 164.672 37.5625H170.125C171.395 37.5625 172.031 36.9219 172.031 35.6406V25.4062ZM177.797 35.6406C177.797 37.8828 177.289 39.5078 176.281 40.5156C175.27 41.5273 173.645 42.0312 171.406 42.0312H163.406C161.156 42.0312 159.523 41.5273 158.516 40.5156C157.504 39.5078 157 37.8828 157 35.6406V25.4062C157 23.1562 157.504 21.5273 158.516 20.5156C159.523 19.5078 161.156 19 163.406 19H171.406C173.645 19 175.27 19.5078 176.281 20.5156C177.289 21.5273 177.797 23.1562 177.797 25.4062V35.6406Z" fill="white"/>
<path d="M44.0239 19.2217H57.4614C59.6997 19.2217 61.3247 19.7334 62.3364 20.7529C63.356 21.7646 63.8677 23.3896 63.8677 25.6279V28.5029C63.8677 30.2764 63.5708 31.6553 62.9771 32.6436C62.3911 33.624 61.4614 34.2686 60.1802 34.5811L64.1802 41.6279H57.9458L54.2583 34.9092H49.7896V41.6279H44.0239V19.2217ZM58.1021 25.6279C58.1021 24.3467 57.4614 23.7061 56.1802 23.7061H49.7896V30.4248H56.1802C57.4614 30.4248 58.1021 29.7842 58.1021 28.5029V25.6279Z" fill="white"/>
<path d="M77.9329 41.6279H72.1829V23.7061H65.4485V19.2217H84.6516V23.7061H77.9329V41.6279Z" fill="white"/>
<path d="M181.447 19.2217H194.884C197.123 19.2217 198.748 19.7334 199.759 20.7529C200.779 21.7646 201.291 23.3896 201.291 25.6279V28.8311C201.291 31.0732 200.779 32.6982 199.759 33.7061C198.748 34.7178 197.123 35.2217 194.884 35.2217H187.212V41.6279H181.447V19.2217ZM195.525 25.6279C195.525 24.3467 194.884 23.7061 193.603 23.7061H187.212V30.7529H193.603C194.884 30.7529 195.525 30.1123 195.525 28.8311V25.6279Z" fill="white"/>
</svg>
